<svg width="16" height="16" viewBox="0 0 16 16" fill="none" xmlns="http://www.w3.org/2000/svg">
<g id="clockicon" clip-path="url(#clip0_0_22)">
<g id="Group">
<path id="Vector" d="M7.23461 0.0363188C5.74086 0.189444 4.38149 0.723819 3.16586 1.63007C2.77211 1.92694 1.92211 2.77382 1.63149 3.16444C0.859611 4.19569 0.362736 5.32069 0.143986 6.51444C-0.274764 8.77694 0.243986 10.9832 1.63149 12.8394C1.92211 13.2301 2.77211 14.0769 3.16586 14.3738C4.30336 15.2238 5.56586 15.7394 7.01586 15.9457C7.38461 15.9988 8.61274 15.9957 9.00024 15.9457C10.8096 15.6957 12.4284 14.8926 13.6596 13.6363C14.0534 13.2363 14.1471 13.1301 14.3971 12.7988C15.2096 11.7269 15.7409 10.4144 15.944 8.98632C15.9971 8.61757 15.9971 7.38632 15.944 7.01757C15.7627 5.75507 15.319 4.55819 14.6627 3.58007C13.3784 1.66132 11.4034 0.417569 9.10961 0.0769434C8.72524 0.0206938 7.61586 -0.00430584 7.23461 0.0363188ZM8.29086 2.95194C8.35961 2.98632 8.44711 3.07382 8.48774 3.14569L8.56274 3.27382V5.49569V7.72069L9.93774 8.82069C10.969 9.64569 11.3252 9.94569 11.3659 10.0301C11.394 10.0926 11.419 10.2144 11.419 10.3051C11.419 10.6051 11.1752 10.8457 10.8659 10.8457C10.7815 10.8457 10.669 10.8238 10.6159 10.7988C10.4752 10.7301 7.59399 8.41132 7.51899 8.30507C7.45336 8.21757 7.45336 8.18007 7.44399 5.74569L7.43774 3.27694L7.50649 3.15507C7.61586 2.95819 7.86586 2.83632 8.07836 2.87069C8.13149 2.87694 8.22524 2.91444 8.29086 2.95194Z" fill="url(#paint0_linear_0_22)"/>
</g>
</g>
<defs>
<linearGradient id="paint0_linear_0_22" x1="-2.7998" y1="-2.79806" x2="17.6002" y2="19.6019" gradientUnits="userSpaceOnUse">
<stop stop-color="#FA7CBB"/>
<stop offset="1" stop-color="#F14658"/>
</linearGradient>
<clipPath id="clip0_0_22">
<rect width="16" height="16" fill="white"/>
</clipPath>
</defs>
</svg>
