<svg width="16" height="12" viewBox="0 0 16 12" fill="none" xmlns="http://www.w3.org/2000/svg">
<g id="clubicon">
<g id="Group 14449">
<g id="Group 14446">
<path id="Ellipse 457" d="M12.2779 5.31302C13.2132 5.31302 13.9715 4.55476 13.9715 3.6194C13.9715 2.68404 13.2132 1.92578 12.2779 1.92578C11.3425 1.92578 10.5843 2.68404 10.5843 3.6194C10.5843 4.55476 11.3425 5.31302 12.2779 5.31302Z" fill="url(#paint0_linear_0_59)"/>
<path id="Path 12120" d="M8.89073 9.05002C8.87483 8.59242 8.95122 8.1363 9.11536 7.70885C9.27951 7.2814 9.52803 6.89138 9.84613 6.56204C10.1642 6.23269 10.5454 5.97076 10.9669 5.79187C11.3884 5.61298 11.8416 5.52079 12.2994 5.52079C12.7573 5.52079 13.2105 5.61298 13.632 5.79187C14.0535 5.97076 14.4346 6.23269 14.7527 6.56204C15.0708 6.89138 15.3194 7.2814 15.4835 7.70885C15.6476 8.1363 15.724 8.59242 15.7081 9.05002C15.7081 9.91977 12.3015 10.0703 12.3015 10.0703C12.3015 10.0703 8.89073 10.0627 8.89073 9.05002Z" fill="url(#paint1_linear_0_59)"/>
</g>
<g id="Group 14447">
<path id="Ellipse 457_2" d="M3.38933 5.31302C4.32469 5.31302 5.08295 4.55476 5.08295 3.6194C5.08295 2.68404 4.32469 1.92578 3.38933 1.92578C2.45397 1.92578 1.69571 2.68404 1.69571 3.6194C1.69571 4.55476 2.45397 5.31302 3.38933 5.31302Z" fill="url(#paint2_linear_0_59)"/>
<path id="Path 12120_2" d="M0.00205834 9.05002C-0.0138462 8.59242 0.0625499 8.1363 0.226692 7.70885C0.390835 7.2814 0.639362 6.89138 0.95746 6.56204C1.27556 6.23269 1.65671 5.97076 2.0782 5.79187C2.49969 5.61298 2.95288 5.52079 3.41076 5.52079C3.86864 5.52079 4.32184 5.61298 4.74332 5.79187C5.16481 5.97076 5.54597 6.23269 5.86406 6.56204C6.18216 6.89138 6.43069 7.2814 6.59483 7.70885C6.75897 8.1363 6.83537 8.59242 6.81947 9.05002C6.81947 9.91977 3.41282 10.0703 3.41282 10.0703C3.41282 10.0703 0.00205834 10.0627 0.00205834 9.05002Z" fill="url(#paint3_linear_0_59)"/>
</g>
<g id="Group 14445">
<path id="Ellipse 457_3" d="M7.79898 4.9903C9.17701 4.9903 10.2941 3.87318 10.2941 2.49515C10.2941 1.11712 9.17701 0 7.79898 0C6.42095 0 5.30383 1.11712 5.30383 2.49515C5.30383 3.87318 6.42095 4.9903 7.79898 4.9903Z" fill="url(#paint4_linear_0_59)"/>
<path id="Path 12120_3" d="M2.80874 10.4969C2.80155 9.83287 2.92613 9.174 3.17528 8.55843C3.42442 7.94286 3.79318 7.38282 4.2602 6.91071C4.72723 6.4386 5.28325 6.0638 5.89609 5.80801C6.50893 5.55222 7.16642 5.42052 7.83049 5.42052C8.49457 5.42052 9.15206 5.55222 9.76489 5.80801C10.3777 6.0638 10.9338 6.4386 11.4008 6.91071C11.8678 7.38282 12.2366 7.94286 12.4857 8.55843C12.7349 9.174 12.8594 9.83287 12.8523 10.4969C12.8523 11.7777 7.83079 12 7.83079 12C7.83079 12 2.80874 11.9888 2.80874 10.4969Z" fill="url(#paint5_linear_0_59)"/>
</g>
</g>
</g>
<defs>
<linearGradient id="paint0_linear_0_59" x1="12.2779" y1="1.92578" x2="12.2779" y2="5.31302" gradientUnits="userSpaceOnUse">
<stop stop-color="#FAD6A6"/>
<stop offset="1" stop-color="#F06966"/>
</linearGradient>
<linearGradient id="paint1_linear_0_59" x1="8.88867" y1="7.79555" x2="15.7102" y2="7.79555" gradientUnits="userSpaceOnUse">
<stop stop-color="#FAD6A6"/>
<stop offset="1" stop-color="#F06966"/>
</linearGradient>
<linearGradient id="paint2_linear_0_59" x1="3.38933" y1="1.92578" x2="3.38933" y2="5.31302" gradientUnits="userSpaceOnUse">
<stop stop-color="#FAD6A6"/>
<stop offset="1" stop-color="#F06966"/>
</linearGradient>
<linearGradient id="paint3_linear_0_59" x1="0" y1="7.79555" x2="6.82152" y2="7.79555" gradientUnits="userSpaceOnUse">
<stop stop-color="#FAD6A6"/>
<stop offset="1" stop-color="#F06966"/>
</linearGradient>
<linearGradient id="paint4_linear_0_59" x1="7.79898" y1="0" x2="7.79898" y2="4.9903" gradientUnits="userSpaceOnUse">
<stop stop-color="#FAD6A6"/>
<stop offset="1" stop-color="#F06966"/>
</linearGradient>
<linearGradient id="paint5_linear_0_59" x1="2.80844" y1="8.71026" x2="12.8525" y2="8.71026" gradientUnits="userSpaceOnUse">
<stop stop-color="#FAD6A6"/>
<stop offset="1" stop-color="#F06966"/>
</linearGradient>
</defs>
</svg>
