<svg width="9" height="12" viewBox="0 0 9 12" fill="none" xmlns="http://www.w3.org/2000/svg">
<path id="foryouicon" d="M4.1642 0C1.86803 0 0 1.86831 0 4.16453C0 6.37485 3.77825 11.5389 3.93913 11.7576L4.08927 11.9619C4.10683 11.986 4.13479 12 4.1642 12C4.19407 12 4.22185 11.986 4.23959 11.9619L4.38964 11.7576C4.55061 11.5389 8.32877 6.37485 8.32877 4.16453C8.32877 1.86831 6.46043 0 4.1642 0ZM4.1642 2.67281C4.98692 2.67281 5.65593 3.34184 5.65593 4.16453C5.65593 4.9868 4.98689 5.65626 4.1642 5.65626C3.34196 5.65626 2.67247 4.9868 2.67247 4.16453C2.67247 3.34184 3.34193 2.67281 4.1642 2.67281Z" fill="url(#paint0_linear_0_38)"/>
<defs>
<linearGradient id="paint0_linear_0_38" x1="4.16438" y1="0" x2="4.16438" y2="12" gradientUnits="userSpaceOnUse">
<stop stop-color="#FA7CBB"/>
<stop offset="1" stop-color="#F14658"/>
</linearGradient>
</defs>
</svg>
