<svg width="19" height="12" viewBox="0 0 19 12" fill="none" xmlns="http://www.w3.org/2000/svg">
<g id="Group 647">
<g id="Group">
<path id="Vector" d="M4.54062 0.0186167C3.45653 0.128443 2.5106 0.762604 1.77016 1.87504C0.856115 3.2461 0.268011 4.95019 0.0448146 6.87039C-0.0224985 7.45849 -0.0118701 9.02441 0.0625286 9.63377C0.190069 10.6541 0.367209 11.1855 0.700232 11.554C1.10765 11.9968 1.81267 12.1279 2.36889 11.8657C2.8578 11.6354 3.75058 10.8631 4.56897 9.96679C5.43341 9.02086 5.45821 8.99252 5.69558 8.88624L5.91523 8.7835H9.0506H12.186L12.4163 8.89332C12.604 8.98189 12.7068 9.06692 12.9654 9.35034C14.3896 10.9127 15.13 11.5823 15.7713 11.8764C15.9945 11.9791 16.0618 11.9933 16.3204 11.9933C17.2841 11.9933 17.7801 11.391 17.9926 9.97033C18.1733 8.73744 18.1556 7.34512 17.9395 6.05554C17.5675 3.81649 16.4728 1.6235 15.2788 0.713004C14.627 0.217013 14.0141 0.00798798 13.2134 0.00798798C12.3206 0.00798798 11.442 0.298497 10.5244 0.89723C10.3756 0.992886 10.1489 1.1098 10.0142 1.15585C9.79459 1.23025 9.72019 1.23734 9.0506 1.23734C8.38102 1.23734 8.30662 1.23025 8.08696 1.15585C7.95234 1.1098 7.72914 0.996428 7.59097 0.904316C6.79739 0.387067 5.97546 0.0753012 5.29524 0.0292444C5.12873 0.0186167 4.95513 0.00798798 4.90553 0.000902176C4.85593 -0.00264072 4.69296 0.00444508 4.54062 0.0186167ZM13.0717 2.15847C13.5039 2.41 13.6775 2.99457 13.4508 3.44096C13.2913 3.74918 12.9052 3.98301 12.5544 3.98301C12.2072 3.98301 11.8388 3.73147 11.6794 3.38427C11.605 3.22485 11.5943 3.15753 11.6085 2.94142C11.6262 2.66863 11.6829 2.53046 11.8565 2.33561C12.1399 2.00967 12.6855 1.92818 13.0717 2.15847ZM5.47238 2.77137L5.66723 2.83514L5.67786 3.4445L5.68495 4.05386H6.26951H6.85407L6.94973 4.23809C7.08081 4.48963 7.08789 4.82974 6.9639 5.12379L6.88241 5.32927H6.24825H5.61409V5.93509V6.53736L5.44758 6.6153C5.19604 6.73222 4.73548 6.72513 4.52645 6.60822L4.37411 6.51965V5.92446V5.32927H3.77892H3.18373L3.12705 5.21236C2.97825 4.90059 2.97471 4.51443 3.11288 4.1814L3.16602 4.05386H3.78601H4.40954V3.43387C4.40954 3.09376 4.41308 2.81388 4.42017 2.81388C4.42371 2.81388 4.49102 2.78908 4.56897 2.76074C4.76382 2.68989 5.23147 2.69697 5.47238 2.77137ZM15.5304 3.6181C16.0795 3.95821 16.1575 4.70928 15.6898 5.16276C15.5268 5.31864 15.2399 5.43555 15.0202 5.43555C14.6766 5.43555 14.2975 5.19464 14.1345 4.86871C14.0424 4.69157 14.0247 4.34791 14.0955 4.13889C14.2904 3.55433 15.006 3.2957 15.5304 3.6181ZM13.0044 4.82619C13.3303 4.9927 13.5145 5.27967 13.5429 5.65875C13.557 5.87486 13.55 5.91737 13.4437 6.12994C13.2524 6.51965 12.9193 6.70388 12.4694 6.66845C11.9557 6.62593 11.5979 6.21851 11.605 5.68709C11.6085 5.30093 11.7927 5.01042 12.1364 4.83682C12.3419 4.73054 12.3879 4.72345 12.6111 4.73762C12.7705 4.74471 12.9123 4.78014 13.0044 4.82619Z" fill="url(#paint0_linear_0_39)"/>
</g>
</g>
<defs>
<linearGradient id="paint0_linear_0_39" x1="8.62668" y1="-1.94096" x2="8.62668" y2="14.0184" gradientUnits="userSpaceOnUse">
<stop stop-color="#FAD6A6"/>
<stop offset="1" stop-color="#F06966"/>
</linearGradient>
</defs>
</svg>
