<svg width="12" height="12" viewBox="0 0 12 12" fill="none" xmlns="http://www.w3.org/2000/svg">
<g id="globallyicon">
<path id="Vector" d="M9.16406 0.351562V0.703125H9.97734H10.793L9.79688 1.70156C9.24844 2.25 8.48672 3.00469 8.10234 3.37969L7.40391 4.06406L6 2.66016L4.59609 1.25625L2.66719 3.17578C1.60547 4.23047 0.595313 5.23359 0.421875 5.40703L0.105469 5.71875L0.358594 5.96953L0.609375 6.22266L2.175 4.66406C3.03516 3.80625 3.93047 2.91562 4.16719 2.68359L4.59375 2.26172L5.99766 3.66562L7.40391 5.07187L9.34453 3.14062L11.2852 1.21172L11.2922 2.01094L11.2969 2.8125H11.6484H12V1.40625V-4.76837e-07H10.582H9.16406V0.351562Z" fill="url(#paint0_linear_0_34)"/>
<path id="Vector_2" d="M9.16406 7.75781V11.2969H8.8125H8.46094V9.16406V7.03125H7.40625H6.35156V9.16406V11.2969H6H5.64844V8.46094V5.625H4.59375H3.53906V8.46094V11.2969H3.1875H2.83594V9.51562V7.73438H1.76953H0.703125V9.51562V11.2969H0.351562H0V11.6484V12H6H12V11.6484V11.2969H11.6484H11.2969V7.75781V4.21875H10.2305H9.16406V7.75781Z" fill="url(#paint1_linear_0_34)"/>
</g>
<defs>
<linearGradient id="paint0_linear_0_34" x1="6.05273" y1="6.22266" x2="6.05273" y2="0" gradientUnits="userSpaceOnUse">
<stop stop-color="#FA7CBB"/>
<stop offset="1" stop-color="#F14658"/>
</linearGradient>
<linearGradient id="paint1_linear_0_34" x1="6" y1="12" x2="6" y2="4.21875" gradientUnits="userSpaceOnUse">
<stop stop-color="#FA7CBB"/>
<stop offset="1" stop-color="#F14658"/>
</linearGradient>
</defs>
</svg>
