<svg width="15" height="14" viewBox="0 0 15 14" fill="none" xmlns="http://www.w3.org/2000/svg">
<g id="Group">
<path id="Vector" d="M6.34151 0.01756C4.70578 0.184694 3.21528 0.888849 2.05904 2.04235C-0.686346 4.78225 -0.686346 9.22089 2.05904 11.9608C3.17144 13.0705 4.52769 13.7363 6.14971 13.9664C6.47576 14.013 7.55254 14.0102 7.88955 13.9637C9.47869 13.7445 10.8733 13.0595 11.9693 11.9581C13.2406 10.6785 13.9502 9.05102 14.0187 7.24816C14.09 5.30009 13.3557 3.43148 11.9665 2.04235C10.8897 0.962827 9.52527 0.280591 7.98545 0.0531788C7.65118 0.00386047 6.67851 -0.0180588 6.34151 0.01756ZM7.34979 3.74109C7.79913 3.95206 7.88681 4.48634 7.52514 4.79595C7.36897 4.93021 7.18814 4.985 6.94702 4.96856C6.547 4.94117 6.26479 4.66992 6.26479 4.31099C6.26205 3.83425 6.87031 3.51642 7.34979 3.74109ZM7.41555 5.91109C7.49774 5.94123 7.5909 6.00151 7.64022 6.05905L7.72516 6.15494V8.00712C7.72516 10.1552 7.74981 9.97163 7.42925 10.1305C7.26485 10.2127 7.22375 10.221 7.01278 10.221C6.73879 10.2182 6.55522 10.1497 6.40726 9.99903L6.31411 9.90313L6.30589 8.04548L6.30041 6.19056L6.36342 6.09467C6.52782 5.84807 7.01552 5.76314 7.41555 5.91109Z" fill="url(#paint0_linear_1_2)"/>
</g>
<defs>
<linearGradient id="paint0_linear_1_2" x1="16.8607" y1="22.7069" x2="-1.97273" y2="-5.25034" gradientUnits="userSpaceOnUse">
<stop stop-color="#2F80ED"/>
<stop offset="1" stop-color="#B2FFDA"/>
</linearGradient>
</defs>
</svg>
