<svg width="11" height="12" viewBox="0 0 11 12" fill="none" xmlns="http://www.w3.org/2000/svg">
<g id="lessonsicon">
<path id="Vector" d="M1.35787 0.0163307C0.759354 0.0901566 0.242571 0.522567 0.0580062 1.11054L0 1.2951V6.00151C0 10.4917 0.00263664 10.7158 0.0474596 10.8635C0.179292 11.2906 0.487779 11.6624 0.856909 11.8338C1.22868 12.0104 0.914916 11.9999 5.72152 11.9999H10.0983L10.2117 11.934C10.4042 11.8232 10.5097 11.5859 10.4543 11.3829C10.4253 11.2695 10.304 11.1113 10.2065 11.056C10.1643 11.0322 9.13334 11.0217 5.77162 11.0111L1.39215 10.998L1.26295 10.9189C1.04938 10.7844 0.951829 10.5418 1.01774 10.3045C1.05993 10.1516 1.23395 9.9723 1.37369 9.93275C1.44488 9.91166 2.80539 9.90375 5.77425 9.90375C9.88742 9.90375 10.0773 9.90111 10.1774 9.85365C10.3119 9.79301 10.4174 9.66909 10.4543 9.53462C10.4728 9.46343 10.4807 8.11083 10.4754 5.23161C10.4675 1.24501 10.4648 1.02353 10.42 0.886424C10.2856 0.483017 10.0008 0.195622 9.60266 0.0585175L9.43919 0.00314808L5.48422 0.000511169C3.30899 -0.00212574 1.45279 0.00578403 1.35787 0.0163307ZM1.99067 4.94686V8.90182H1.70855C1.45543 8.90182 1.16803 8.94137 1.03356 8.99411C0.991378 9.01256 0.988742 8.83327 0.994015 5.20788L1.00192 1.40057L1.07311 1.27665C1.14958 1.14745 1.28141 1.0499 1.42115 1.01826C1.46597 1.00507 1.61363 0.997163 1.7481 0.994526L1.99067 0.991889V4.94686ZM5.5475 3.35169C5.60551 3.37278 6.01946 3.62326 6.46242 3.90802C7.16376 4.35888 7.27978 4.44326 7.34833 4.54872C7.54608 4.85985 7.50389 5.23952 7.2455 5.47682C7.15058 5.56647 5.69779 6.4972 5.5765 6.54994C5.32866 6.65277 4.95953 6.55521 4.77233 6.33637C4.60358 6.14126 4.59831 6.08325 4.60622 4.88885C4.61413 3.70236 4.60885 3.75246 4.80924 3.54152C5.00699 3.33059 5.28647 3.2594 5.5475 3.35169Z" fill="url(#paint0_linear_0_57)"/>
</g>
<defs>
<linearGradient id="paint0_linear_0_57" x1="5.54684" y1="-0.0692149" x2="5.62594" y2="12.0626" gradientUnits="userSpaceOnUse">
<stop stop-color="#FAD6A6"/>
<stop offset="1" stop-color="#F06966"/>
</linearGradient>
</defs>
</svg>
