<svg width="12" height="12" viewBox="0 0 12 12" fill="none" xmlns="http://www.w3.org/2000/svg">
<path d="M1.45936 0.0217676C0.731089 0.148791 0.248401 0.58067 0.0508093 1.28918C0.00564548 1.4529 0 1.59403 0 2.55941C0 3.52479 0.00564548 3.66592 0.0508093 3.82964C0.242755 4.51839 0.688748 4.93333 1.38879 5.07447C1.64001 5.1281 1.7501 5.13092 2.65337 5.11963C3.75424 5.10834 3.82199 5.09987 4.21999 4.90793C4.62647 4.71034 4.92285 4.32362 5.05835 3.81553C5.10351 3.64052 5.10916 3.49656 5.10916 2.5453C5.10916 1.50935 5.10633 1.46419 5.04423 1.24684C4.95108 0.925044 4.82688 0.707693 4.61518 0.49881C4.40912 0.289927 4.19177 0.165727 3.88126 0.072577C3.68085 0.0132995 3.61593 0.00765371 2.63926 0.00200844C2.07189 -0.000814438 1.54121 0.00765371 1.45936 0.0217676Z" fill="url(#paint0_linear_0_50)"/>
<path d="M8.41176 0.0104771C7.60163 0.131855 7.08507 0.61172 6.927 1.39362C6.87336 1.64484 6.87054 1.75493 6.88183 2.65821C6.89312 3.75907 6.90159 3.82682 7.09354 4.22482C7.23185 4.51274 7.48872 4.76961 7.77664 4.90793C8.17465 5.09987 8.24239 5.10834 9.34326 5.11963C10.2465 5.13092 10.3566 5.1281 10.6078 5.07447C11.3079 4.93333 11.7539 4.51839 11.9458 3.82964C11.991 3.66592 11.9966 3.52479 11.9966 2.55941C11.9966 1.59403 11.991 1.4529 11.9458 1.28918C11.7652 0.64277 11.3672 0.244764 10.7264 0.0584636C10.5824 0.0161223 10.4074 0.00765419 9.52674 0.00483131C8.95937 -0.000813961 8.45974 0.00200891 8.41176 0.0104771Z" fill="url(#paint1_linear_0_50)"/>
<path d="M1.39726 6.91907C0.700039 7.06021 0.259692 7.46104 0.064923 8.13285C0.00282274 8.3502 0 8.39536 0 9.44542C0 10.4108 0.00564548 10.5519 0.0508093 10.7157C0.231465 11.3621 0.637939 11.7657 1.28435 11.9492C1.44806 11.9944 1.5892 12 2.55458 12C3.51995 12 3.66109 11.9944 3.82481 11.9492C4.51356 11.7572 4.9285 11.3113 5.06964 10.6112C5.12327 10.3572 5.12609 10.2499 5.1148 9.33251C5.10633 8.39254 5.10069 8.31633 5.04141 8.11874C4.8918 7.62193 4.62082 7.28885 4.2087 7.08844C3.80223 6.89367 3.66956 6.87673 2.54893 6.87955C1.87148 6.88238 1.52428 6.89367 1.39726 6.91907Z" fill="url(#paint2_linear_0_50)"/>
<path d="M8.27066 6.91907C7.70046 7.04609 7.29964 7.34248 7.08511 7.7913C6.90163 8.17801 6.89316 8.23164 6.88187 9.30429C6.86776 10.3572 6.88187 10.5519 7.00607 10.8991C7.15568 11.3197 7.42384 11.6161 7.8162 11.8052C8.18598 11.9831 8.32147 12 9.44209 12C10.303 12 10.4752 11.9915 10.6559 11.9492C11.3418 11.7883 11.7596 11.3846 11.943 10.6987C11.991 10.5237 11.9967 10.391 11.9967 9.43131C11.9967 8.39536 11.9938 8.3502 11.9317 8.13285C11.7539 7.51749 11.3531 7.12231 10.7264 6.94165C10.5825 6.89931 10.4018 6.89367 9.49855 6.88802C8.69407 6.88238 8.4005 6.89084 8.27066 6.91907Z" fill="url(#paint3_linear_0_50)"/>
<defs>
<linearGradient id="paint0_linear_0_50" x1="2.55458" y1="5.125" x2="2.55458" y2="0.0014677" gradientUnits="userSpaceOnUse">
<stop stop-color="#F06966"/>
<stop offset="1" stop-color="#FAD6A6"/>
</linearGradient>
<linearGradient id="paint1_linear_0_50" x1="9.43655" y1="5.125" x2="9.43655" y2="0.00189447" gradientUnits="userSpaceOnUse">
<stop stop-color="#F06966"/>
<stop offset="1" stop-color="#FAD6A6"/>
</linearGradient>
<linearGradient id="paint2_linear_0_50" x1="2.56008" y1="12" x2="2.56008" y2="6.87929" gradientUnits="userSpaceOnUse">
<stop stop-color="#F06966"/>
<stop offset="1" stop-color="#FAD6A6"/>
</linearGradient>
<linearGradient id="paint3_linear_0_50" x1="9.43706" y1="12" x2="9.43706" y2="6.88637" gradientUnits="userSpaceOnUse">
<stop stop-color="#F06966"/>
<stop offset="1" stop-color="#FAD6A6"/>
</linearGradient>
</defs>
</svg>
